<svg xmlns="http://www.w3.org/2000/svg" width="17" height="17" viewBox="0 0 17 17"><g><g><path fill="#dad9d2" d="M5.917 16.502C5.94 13.258 6 10.733 6 8.93c0-1.805-.059-2.877-.083-3.218h3.588v1.53l-.017.033h.017V7.24c.777-1.241 1.86-1.793 3.249-1.793C14 5.446 15 5.857 15.743 6.68c.755.823 1.132 2.033 1.132 3.629v6.193h-3.588v-5.77c0-1.626-.603-2.44-1.81-2.44a1.763 1.763 0 0 0-1.157.38 2.19 2.19 0 0 0-.686.929 2.34 2.34 0 0 0-.129.873v6.028zm-5.576 0V5.712h3.588v10.796zM.696 1C1.1.667 1.627.479 2.167.502A2.086 2.086 0 0 1 3.606 1c.394.38.585.887.565 1.41.011.49-.171.96-.55 1.291-.405.368-.94.56-1.486.535h-.012a1.97 1.97 0 0 1-1.438-.535 1.79 1.79 0 0 1-.554-1.34A1.838 1.838 0 0 1 .696 1z"/></g></g></svg>