<svg xmlns="http://www.w3.org/2000/svg" width="18" height="15" viewBox="0 0 18 15"><g><g><path fill="#dad9d2" d="M17.924 1.928a7.44 7.44 0 0 1-2.128.58A3.699 3.699 0 0 0 17.424.47a7.448 7.448 0 0 1-2.35.893A3.7 3.7 0 0 0 12.371.2a3.693 3.693 0 0 0-3.606 4.525C5.69 4.57 3 3.104 1.136.874c-.32.545-.5 1.178-.5 1.853a3.69 3.69 0 0 0 1.646 3.069 3.715 3.715 0 0 1-1.678-.463v.047c0 1.787 1.277 3.274 2.969 3.62a3.96 3.96 0 0 1-.975.124c-.239 0-.47-.023-.697-.068a3.708 3.708 0 0 0 3.458 2.56A7.443 7.443 0 0 1-.12 13.142a10.491 10.491 0 0 0 5.674 1.656c6.81 0 10.533-5.615 10.533-10.484 0-.16-.004-.313-.01-.477a7.506 7.506 0 0 0 1.847-1.908z"/></g></g></svg>